<?xml version="1.0" encoding="utf-8"?>
<!-- Generator: Adobe Illustrator 24.0.2, SVG Export Plug-In . SVG Version: 6.00 Build 0)  -->
<svg version="1.1" id="Capa_1" xmlns="http://www.w3.org/2000/svg" xmlns:xlink="http://www.w3.org/1999/xlink" x="0px" y="0px"
	 viewBox="0 0 127.56 170" style="enable-background:new 0 0 127.56 170;" xml:space="preserve">
<style type="text/css">
	.st0{opacity:0.71;}
	.st1{fill:#616160;}
	.st2{fill:#8A2A5A;}
	.st3{opacity:0.47;}
	.st4{fill:#F8BD8D;}
	.st5{opacity:0.77;}
	.st6{fill:#3E3D6B;}
</style>
<g class="st0">
	<g>
		<path class="st1" d="M100.46,77.42c-0.2,0.24-0.42,0.29-0.56,0.37c-0.11,0.06-0.18,0.13-0.19,0.32c-0.03,0.44-0.55,0.93-0.6,0.81
			c-0.05-0.12,0.14-4.09,0.17-4.34c0,0.12,0.32,0.85,0.6,1.43c0.02,0.04,0.04,0.08,0.06,0.12C100.25,76.61,100.82,77,100.46,77.42z"
			/>
	</g>
	<g>
		<path class="st1" d="M105.48,133.97c0.23-1.31-0.57-3.24-3.27-6.82c-0.33-0.44-0.68-0.91-1.03-1.39
			c-2.72,1.62-5.09,3.54-7.22,5.72c2.19,1.89,4.06,3.44,5.59,4.38c-0.76,1.55-1.57,3.55-2.12,5.85c-0.45,1.86-0.99,4.28-1.43,6.69
			c-0.59,3.28-1.01,6.55-0.8,8.38c0.09,0.84,0.32,1.39,0.74,1.48c0.47,0.11,1.01-0.36,1.58-1.19c1.11-1.63,2.34-4.65,3.31-7.33
			c0.6-1.65,1.11-3.18,1.45-4.19C103.25,142.61,106,136.72,105.48,133.97z"/>
	</g>
	<g>
		<path class="st1" d="M76.51,124.24c-1.71,3.87-3.03,6.94-3.29,9.02c-1.76,0.27-3.98,0.77-6.31,1.69c-2,0.79-4.62,1.89-7.08,3.06
			c-4.16,1.96-7.88,4.13-7.41,5.29c0.5,1.25,5.22,0.28,9.31-0.81c1.92-0.51,3.69-1.04,4.82-1.39c3.14-0.94,10.16-2.2,11.67-4.42
			c1.12-0.65,2.5-2.08,4.42-4.74c0.13-0.18,0.26-0.36,0.39-0.54C81.09,128.74,79.46,125.8,76.51,124.24z"/>
	</g>
	<g>
		<path class="st1" d="M98.4,72.93c0.46,0.24-0.2-0.17,0.2,0.21c2.52,2.41,0.94,8.28-0.53,8.89c-0.54,0.22-1.9,0.08-2.41,0.96
			c-0.51,0.88-1.56,3.92-2.91,5.07l-3.87-4.76c0.2-0.42,0.39-0.85,0.59-1.28c0.23-0.5,0.77-2.01,0.79-2.3
			c0.01-0.12,0.05-0.2,0.06-0.3c0.01-0.13-0.19-0.41-0.14-0.51c0.07-0.15,0.42-0.1,0.56-0.16c0.19-0.08,0.38-0.27,0.54-0.41
			c0.34-0.3,0.76-0.54,1.07-0.87c0.35-0.34,0.64-0.78,0.93-1.18c1.1-1.49,2.56-3.06,4.46-3.41C98.01,72.81,98.23,72.85,98.4,72.93
			L98.4,72.93z"/>
	</g>
	<path class="st1" d="M102.76,127.2c0,0-0.96,1.88-3.17,3.92c-0.81,0.76-1.6,1.4-2.21,1.9c-0.74,0.59-1.22,0.93-1.22,0.93
		s-7.44-4.88-11.71-9.22c-0.31-0.32-0.62-0.64-0.9-0.95c-4.01-4.54-2.9-9.51-2.9-9.51l4.23-3.41c0,0,7.84-2.48,8.51,1.72
		C94.05,116.78,102.76,127.2,102.76,127.2L102.76,127.2z"/>
	<g>
		<path class="st1" d="M97.38,133.02c-0.74,0.59-1.16,0.98-1.16,0.98s-7.36-4.82-11.64-9.16l6.05-6.55c0,0,0,5.51,1.5,8.19
			C93.21,128.43,97.38,133.02,97.38,133.02z"/>
	</g>
	<path class="st1" d="M82.86,133.04c0,0-6.92-3.38-8.64-5.79c-0.14-0.19,8.55-17.37,8.76-17.48c0.2-0.11,6.3-1.28,6.39-1.3
		c0.2-0.04,1.45,1.89,1.59,2.07c0.96,1.25,1.92,2.51,2.88,3.76c0.42,0.56,0.83,1.12,1.26,1.66c-0.64,0.76-0.87,1.57-1.22,2.48
		c-0.26,0.71-0.53,1.42-0.78,2.15c-0.16,0.47-0.3,1.03-0.66,1.38c-0.73,0.68-1.73,1.11-2.52,1.72c-1.02,0.78-1.69,1.87-2.43,2.9
		c-0.76,1.06-1.53,2.13-2.29,3.19C84.42,130.86,83.64,131.95,82.86,133.04L82.86,133.04z"/>
	<g>
		<path class="st1" d="M96.24,106.16c-0.06-0.35-3.03-1.68-3.95-1.33c-0.93,0.35-1.51,1.02-2.18,0.71
			c-0.48-0.22-5.83-4.07-9.13-6.16c1.07-0.99,2.22-2.18,3.35-3.44c-1.7-1.28-3.06-2.77-4.52-4.36c-0.71,0.94-1.43,1.93-2.08,2.88
			c-1.55,2.27-2.69,4.68-2.67,6.19c-0.01,0.13,0.01,0.26,0.03,0.39c0,0,0,0,0,0c0,0.02,0.01,0.03,0.01,0.05
			c0.04,0.19,0.11,0.37,0.21,0.51c0.18,0.32,0.46,0.65,0.87,1c2.17,1.88,7.82,3.53,10.61,4.5c2.79,0.97,3.69,1.38,4.76,2.23
			c1.07,0.84,2.62,0.99,3.22-0.29c0.59-1.27,0.2-1.63,0.65-1.96C95.89,106.75,96.31,106.5,96.24,106.16z"/>
	</g>
	<path class="st1" d="M87.15,83.62c0,0-4.39,2.18-9.61,10.21c0,0,0.93,1.38,2.73,2.86c1.74,1.44,2.75,1.71,2.75,1.71l3.07-3.24
		L87.15,83.62z"/>
	<path class="st1" d="M80.64,114.27c-0.39,0.09,4.03-12.6,3.38-16.05c-0.66-3.45-2.17-9.65,0.51-12.53
		c2.68-2.89,5.18-3.13,7.33-2.46c2.16,0.68,4.99,3.84,5.34,9.4c0.34,5.56-2.1,23.34-2.1,23.34S83.09,113.67,80.64,114.27
		L80.64,114.27z"/>
	<g>
		<path class="st1" d="M113.67,90.96c-1.09-1.06-1.61-0.78-1.77-1.36c-0.18-0.58-0.28-1.1-0.66-1.16c-0.37-0.06-2.79,2.46-2.77,3.5
			c0.02,1.05,0.49,1.89-0.06,2.45c-0.39,0.4-6.04,4.27-9.39,6.84c-0.48-1.38-1.08-2.89-1.76-4.39c-1.84,1.3-3.99,1.53-6.09,1.94
			c0.68,1.29,1.43,2.66,2.19,3.91c1.42,2.35,3.13,4.4,4.51,5.02c0.17,0.09,0.37,0.15,0.58,0.18c0.01,0,0.03,0,0.04,0
			c0.03,0,0.07,0.01,0.1,0.01c0.03,0,0.06,0,0.1,0c0.48,0,1.05-0.16,1.75-0.55c2.69-1.52,6.4-6.61,8.39-9.07
			c1.99-2.46,2.73-3.22,3.98-3.99C114.06,93.52,114.76,92.01,113.67,90.96z"/>
	</g>
	<path class="st1" d="M98.84,97.58c0,0-1.82,1.07-4.09,2.17c-2.27,1.11-4.27,1.26-4.27,1.26c-0.01-0.01-0.15-0.32-0.36-0.84
		c-0.9-2.17-3.19-7.91-3.57-9.74c-0.4-1.97,1.6-4.7,2.79-5.19c3-1.23,4.9,1.03,5.74,2.08c0.31,0.39,0.91,1.9,1.53,3.65
		C97.69,93.93,98.84,97.58,98.84,97.58z"/>
	<g>
		<path class="st1" d="M61.71,142.49c-4.08,1.09-8.81,2.06-9.31,0.81c-0.47-1.16,3.25-3.33,7.41-5.29L61.71,142.49z"/>
	</g>
	<g>
		<path class="st1" d="M100.83,149.73c-0.98,2.69-2.2,5.7-3.31,7.33l-2.32-0.29c-0.21-1.83,0.2-5.09,0.8-8.38L100.83,149.73z"/>
	</g>
	<path class="st1" d="M95.55,112.43c-0.2,1.54,0,4.92,0,4.92s-0.59,1.46-2.87,0.6c-10.88-4.17-12.78-0.53-13.86-1.09
		c-0.41-0.2,1.02-1.15,1.67-3.44c0.65-2.28,3.4-8.6,3.4-8.6L95.55,112.43z"/>
	<g>
		<path class="st1" d="M99.4,69.53c-0.02-0.05-0.04-0.11-0.08-0.15c-0.2-0.19-1.05,0.04-1.3,0.07c-0.46,0.05-0.92,0.11-1.38,0.15
			c-0.06,0.01-0.13,0.01-0.19,0.01c1.22-0.37,1.58-0.85,1.6-0.88c0.05-0.07,0.04-0.17-0.04-0.23c-0.07-0.05-0.17-0.04-0.23,0.04
			c-0.01,0.01-0.58,0.77-2.92,1.07c-0.56,0.07-1.01,0.15-1.38,0.22c-1.13,0.11-2.39,0.36-3.01,1.38c-0.1,0.16-0.16,0.4-0.26,0.55
			c-0.22-0.17-0.54-0.21-1.45-0.17c-0.09,0-0.16,0.08-0.15,0.17c0,0.09,0.08,0.16,0.17,0.15c0.67-0.03,0.97-0.02,1.14,0.05
			c-0.08,0.03-0.17,0.05-0.26,0.09c-0.59,0.26-0.94,0.83-1.15,1.42c-0.42,1.14-0.2,2.38,0.3,3.46c0.24,0.51,0.53,1.01,0.79,1.52
			c0.12,0.23,0.23,0.45,0.3,0.7c0.07,0.25,0.1,0.51,0.2,0.75c0.02,0.03,0.03,0.08,0.07,0.09c0.03,0.02,0.07,0.03,0.1,0.03
			c0.87,0.06,3.94-0.02,3.02-0.91c-1.28-1.22-0.32-2,0.41-2.11c0.72-0.13,1,1.84,1.82,1.56c0.81-0.29-0.25-2.48,0.67-2.87
			c0.97-0.41,0.1-1.41,0.82-2.06c0.32-0.29,1.12-0.19,1.49-0.4c0.04-0.03,0.08-0.06,0.14-0.09C99.68,72.43,99.81,70.64,99.4,69.53z"
			/>
	</g>
	<g>
		<path class="st1" d="M99.1,76.01c0,0.21-0.17,0.38-0.38,0.38c-0.21,0-0.38-0.17-0.38-0.38c0-0.21,0.17-0.38,0.38-0.38
			C98.93,75.63,99.1,75.8,99.1,76.01z"/>
	</g>
	<g>
		<path class="st1" d="M99.76,74.94C99.75,74.94,99.75,74.94,99.76,74.94c-0.02,0.01-0.03,0.01-0.04,0.01
			c-0.55-0.02-1.13-0.12-1.66,0.07c-0.16,0.06-0.32,0.15-0.47,0.24c-0.14,0.08-0.29,0.22-0.45,0.26c0-0.05,0.05-0.14,0.09-0.18
			c0.05-0.06,0.1-0.12,0.15-0.18c0.15-0.15,0.29-0.33,0.47-0.45c0.42-0.3,1.01-0.38,1.51-0.29c0.14,0.02,0.28,0.07,0.37,0.18
			c0.07,0.08,0.09,0.2,0.05,0.3C99.77,74.92,99.76,74.93,99.76,74.94z"/>
	</g>
	<g>
		<path class="st2" d="M77.86,94.27c-0.04,0.06-0.08,0.12-0.13,0.19c-0.03,0.04-0.05,0.08-0.08,0.12c-0.15-0.22-0.12-0.74-0.12-0.74
			l0,0l0,0C77.56,93.87,77.66,94.02,77.86,94.27z"/>
	</g>
	<g>
		<path class="st2" d="M83.01,98.4c-0.31,0.05-0.8-0.05-0.94-0.08c0.08-0.08,0.15-0.15,0.23-0.23C82.75,98.33,83,98.39,83.01,98.4
			C83.01,98.4,83.01,98.4,83.01,98.4z"/>
	</g>
	<g>
		<path class="st1" d="M98.84,97.58c0,0,0.21,0.46-0.69,1.36l-0.32-0.78L98.84,97.58z"/>
	</g>
	<g class="st3">
		<path class="st1" d="M98.84,97.58c0,0-1.82,1.07-4.09,2.17c-2.27,1.11-4.27,1.26-4.27,1.26c-0.01-0.01-0.15-0.32-0.36-0.84
			c-0.03-0.07-0.06-0.14-0.09-0.21v0c1.84-0.97,6.87-3.94,6.61-8.58c0-0.05,0.02-0.14,0.05-0.24
			C97.74,94.07,98.84,97.58,98.84,97.58z"/>
	</g>
	<g>
		<g>
			<path class="st1" d="M56.24,151.93c-0.03,0.11-0.06,0.22-0.11,0.31c-0.45,0.87-2.15-0.14-2.63-0.57c-0.7-0.64-0.99-2.18-1.18-3.1
				c-0.31-1.5-0.62-3.01-0.94-4.51c-0.22-1.02-0.76-1.86-1.04-2.82c-0.1-0.34,0.24-0.84,0.5-1.04c0.11-0.08,0.4-0.11,0.7-0.12
				c-0.01,0.01-0.02,0.03-0.02,0.04c-0.15,0.27,1.99,2.36,2.24,6.89c0.25,4.53,1.93,4.87,1.96,5.05c0,0.02,0,0.05-0.01,0.06
				c0.04-0.02,0.09-0.03,0.16-0.06C56.05,152.03,56.17,151.97,56.24,151.93z"/>
		</g>
		<g>
			<path class="st1" d="M58.95,144.51c-0.11,0.41-0.72,0.5-0.87,0.95c-0.03,0.09-0.08,0.4-0.16,0.85c-0.03,0.21-0.08,0.46-0.12,0.72
				c-0.03,0.17-0.06,0.35-0.09,0.54c-0.04,0.23-0.09,0.47-0.13,0.71c-0.03,0.15-0.06,0.3-0.09,0.45c-0.05,0.23-0.1,0.46-0.16,0.69
				c-0.26,1.08-0.58,2.05-0.94,2.37c0,0.01-0.01,0.13-0.52,0.29c-0.07,0.02-0.12,0.04-0.16,0.06c0.01-0.02,0.01-0.04,0.01-0.06
				c-0.02-0.19-1.7-0.52-1.96-5.05c-0.25-4.54-2.39-6.62-2.24-6.89c0.15-0.27,0.28-0.61,1.49-0.82c1.21-0.21,3.85-0.09,3.85-0.09
				c-0.29,0.57-0.92,1.84-0.54,2.49c0.09,0.16,0.25,0.26,0.4,0.36c0.81,0.52,2.01,1.01,2.23,2.14
				C58.98,144.32,58.98,144.43,58.95,144.51z"/>
		</g>
	</g>
	<g>
		<path class="st1" d="M57.93,146.31L57.93,146.31c-0.03,0.21-0.08,0.46-0.12,0.72l-1.44-1.39c-0.12-0.11-0.13-0.31-0.02-0.44
			c0.06-0.07,0.14-0.11,0.23-0.1c0.07,0,0.13,0.03,0.18,0.08L57.93,146.31z"/>
	</g>
	<g>
		<path class="st1" d="M57.71,147.57c-0.04,0.23-0.09,0.47-0.13,0.71l-1.53-1.48c-0.12-0.11-0.13-0.31-0.02-0.44
			c0.06-0.07,0.14-0.11,0.23-0.1c0.07,0,0.13,0.03,0.18,0.08L57.71,147.57z"/>
	</g>
	<g>
		<path class="st1" d="M57.49,148.73c-0.05,0.23-0.1,0.46-0.16,0.69l-1.45-1.4c-0.12-0.11-0.13-0.31-0.02-0.44
			c0.06-0.07,0.14-0.11,0.22-0.1c0.07,0,0.13,0.03,0.18,0.08L57.49,148.73z"/>
	</g>
	<g>
		<g>
			<path class="st1" d="M105.34,160.35c-0.01,0.37-0.21,0.67-0.69,1.09c-0.83,0.73-2.61,0.3-3.56,0.1
				c-1.25-0.26-2.47-0.66-3.74-0.82c-1.07-0.13-3.95,0.42-4.46-0.93c-0.26-0.69,0.05-1.38,0.29-1.79c0.05,0.39,0.15,0.48,0.36,0.58
				c0.32,0.16,2.31,0.03,3.55,0.36c1.24,0.34,4.13,1.32,5.25,1.8c0.73,0.31,2,0.46,2.69-0.04
				C105.18,160.6,105.28,160.48,105.34,160.35z"/>
		</g>
		<g>
			<path class="st1" d="M102.34,160.75c-1.12-0.48-4.01-1.46-5.25-1.79c-1.24-0.34-3.23-0.2-3.55-0.36
				c-0.24-0.12-0.35-0.22-0.38-0.77c0-0.07-0.01-0.15-0.01-0.23c0-0.12,0-0.26,0-0.42c0.01-1.14,1.55-3.36,1.55-3.36
				s1.13,1.18,1.56,1.19c0.44,0.02,1.08,0.04,2.01-0.8c0.94-0.84,1.99-0.16,2.31-0.06c0.32,0.1,0.45,1.27,0.53,1.45
				c0.16,0.35,0.45,0.7,0.8,1.04c0.2,0.19,0.42,0.38,0.64,0.56c0.1,0.08,0.21,0.17,0.31,0.25c0.24,0.19,0.49,0.37,0.72,0.54
				c0.09,0.07,0.18,0.13,0.26,0.19c0.26,0.19,0.49,0.37,0.68,0.53c0.01,0.01,0.01,0.01,0.02,0.01c0.54,0.47,1.3,1.4,0.47,2
				C104.34,161.21,103.07,161.06,102.34,160.75z"/>
		</g>
		<g>
			<path class="st1" d="M102.57,157.19l-1.99,0.51c-0.19,0.05-0.38-0.06-0.43-0.25c-0.01-0.03-0.01-0.07-0.01-0.1
				c0.01-0.15,0.11-0.29,0.26-0.33l1.53-0.39C102.12,156.82,102.34,157.01,102.57,157.19z"/>
		</g>
		<g>
			<path class="st1" d="M103.6,157.97l-1.93,0.5c-0.19,0.05-0.38-0.07-0.43-0.25c-0.01-0.03-0.01-0.07-0.01-0.1
				c0.01-0.15,0.11-0.29,0.26-0.33l1.39-0.36C103.12,157.62,103.37,157.8,103.6,157.97z"/>
		</g>
		<g>
			<path class="st1" d="M104.56,158.71l-1.87,0.48c-0.19,0.05-0.38-0.06-0.43-0.25c-0.01-0.03-0.01-0.07-0.01-0.1
				c0.01-0.15,0.11-0.29,0.26-0.33l1.35-0.35c0.26,0.19,0.49,0.37,0.68,0.53C104.55,158.7,104.56,158.71,104.56,158.71z"/>
		</g>
	</g>
	<g>
		<path class="st1" d="M90.49,101.01c0,0,1.33-0.22,1.71-0.32l0.28,0.52C92.48,101.21,91.65,101.42,90.49,101.01z"/>
	</g>
</g>
<g class="st0">
	<path class="st1" d="M55.53,36.99c-0.2-0.31,0-5.48,0-5.48l-4.51-2.17v4.97C51.01,34.3,55.73,37.3,55.53,36.99z"/>
	<g>
		<path class="st4" d="M52.97,46.07c0,0,4.2,9,6.21,10.5c0.31,0.23,0.75,0.13,1.08,0.02c0.59-0.19,1.13-0.52,1.64-0.86
			c0.69-0.45,1.35-0.95,2-1.47c0.73-0.59,1.44-1.2,2.14-1.83c0.7-0.63,1.4-1.28,2.08-1.93c0.61-0.58,1.21-1.17,1.81-1.77
			c0.4-0.4,0.81-0.8,1.2-1.21c0.27-0.29,0.61-0.53,0.8-0.88c0.2-0.36,0.02-1.05-0.27-1.34c-0.38-0.37-0.59-0.6-1.06-0.87
			c-0.56-0.31-1.18-0.1-1.75,0.11c0.09-0.03-0.24-0.42-0.32-0.43c-0.13-0.02-0.34,0.02-0.44,0.1c-0.1,0.09-0.15,0.22-0.17,0.35
			c-0.09,0.41-0.25,0.79-0.31,1.2c-0.07,0.44,0.01,0.86,0.06,1.29c0,0-6.49,5.51-6.65,4.86c-0.06-0.23-2.31-6.03-3.06-7.25
			L52.97,46.07z"/>
	</g>
	<g>
		<path class="st1" d="M42.89,41.59c0,0-5.6,4.08-5.87,5.74c-0.28,1.66,0.04,2,0.36,2.12c0.32,0.12,9.94,4.97,9.94,4.97l0.21-2.19
			c0,0-5.54-4.15-6.35-4.45c0,0,3.45-2.15,4.01-2.88C45.74,44.17,42.89,41.59,42.89,41.59z"/>
	</g>
	<g>
		<path class="st1" d="M45.52,52.2c0,0,0.86,1.41,0,4.03h10.11c0,0-0.9-2.36-0.6-3.04C55.33,52.49,45.52,52.2,45.52,52.2z"/>
	</g>
	<g>
		<path class="st1" d="M45.47,45.61c0,0-1.4,6.69-2.74,7.83c0,0,12.21,0.51,14.01,0.38l1.59,0.02l-4.84-9.15L45.47,45.61z"/>
	</g>
	<g>
		<path class="st1" d="M52.97,46.07c0,0,4.2,9,6.21,10.5c0.31,0.23,0.75,0.13,1.08,0.02c0.59-0.19,1.13-0.52,1.64-0.86
			c0.69-0.45,1.35-0.95,2-1.47c0.73-0.59,1.44-1.2,2.14-1.83c0.7-0.63,1.4-1.28,2.08-1.93c0.61-0.58,1.21-1.17,1.81-1.77
			c0.4-0.4,0.81-0.8,1.2-1.21c0.27-0.29,0.61-0.53,0.8-0.88c0.2-0.36,0.02-1.05-0.27-1.34c-0.38-0.37-0.59-0.6-1.06-0.87
			c-0.56-0.31-1.18-0.1-1.75,0.11c0.09-0.03-0.24-0.42-0.32-0.43c-0.13-0.02-0.34,0.02-0.44,0.1c-0.1,0.09-0.15,0.22-0.17,0.35
			c-0.09,0.41-0.25,0.79-0.31,1.2c-0.07,0.44,0.01,0.86,0.06,1.29c0,0-6.49,5.51-6.65,4.86c-0.06-0.23-2.31-6.03-3.06-7.25
			L52.97,46.07z"/>
	</g>
	<g>
		<path class="st1" d="M39.28,41.56c0,0,8.03-4.16,11.38-7.12c0,0,1.16-1.16,3.4,0.66c2.24,1.82,5.95,8.42,5.95,8.42l0.22,0.33
			l-6.68,4.23l-1.25-2.09l-6.83,0.41l-0.96,0.51C44.51,46.9,41.67,42.45,39.28,41.56z"/>
	</g>
	<g>
		<path class="st1" d="M41.23,69.42c0,0-2.61,6.26-3.13,8.18c0,0-4.73-0.69-14.28,6.57l-4.13,2.34l-0.62,2.17
			c0,0,2.11,1.14,2.4,1.14c0.29,0,0.23-0.46,0.46-0.57c0.23-0.11,17.02-7.03,18.51-7.6c1.49-0.57,6.74-6.11,7.2-8.4
			C48.1,70.97,41.23,69.42,41.23,69.42z"/>
	</g>
	<g>
		<path class="st1" d="M52.33,73.68c0,0,5.37,8.03,5.77,8.6c0.4,0.57,0.4,0.57,0.4,0.57s-2.57,2.74-4.63,13.77l-1.03,6.26l3.9-1.2
			c0,0,5.87-16.54,6.56-17.34c0.69-0.8-3.54-14.57-3.54-14.57L52.33,73.68z"/>
	</g>
	<g>
		<path class="st1" d="M49.2,70.36l-0.64,3.3c0,0-5.27,0.77-9.34-6.3l4.54-7.47L49.2,70.36z"/>
	</g>
	<g>
		<path class="st1" d="M55.81,56.22l4.42,13.1c0,0-0.08,3.83-8.99,5.03l-3.58-5.83c0,0-8.18-2.19-2.78-10.71l0.17-1.83L55.81,56.22z
			"/>
	</g>
	<g>
		<g>
			<path class="st1" d="M63.32,107.1c0.01,0.37-0.19,0.67-0.63,1.09c-0.78,0.75-2.55,0.38-3.48,0.22c-1.23-0.21-2.44-0.56-3.69-0.67
				c-1.05-0.09-3.85,0.56-4.4-0.75c-0.28-0.66-0.01-1.36,0.22-1.76c0.06,0.38,0.17,0.46,0.38,0.56c0.32,0.14,2.26-0.06,3.49,0.23
				c1.23,0.29,4.08,1.14,5.2,1.57c0.73,0.28,1.97,0.38,2.63-0.13C63.18,107.35,63.27,107.23,63.32,107.1z"/>
		</g>
		<g>
			<path class="st1" d="M60.4,107.59c-1.11-0.43-3.97-1.29-5.2-1.57c-1.23-0.28-3.17-0.09-3.49-0.23c-0.24-0.11-0.35-0.2-0.4-0.74
				c-0.01-0.07-0.01-0.14-0.02-0.22c-0.01-0.12-0.01-0.25-0.02-0.41c-0.03-1.11,1.4-3.34,1.4-3.34s1.14,1.11,1.57,1.11
				s1.06,0,1.94-0.86c0.89-0.86,1.94-0.23,2.26-0.14c0.31,0.09,0.48,1.23,0.57,1.4c0.17,0.34,0.46,0.67,0.82,0.99
				c0.2,0.18,0.42,0.35,0.65,0.52c0.1,0.08,0.21,0.16,0.32,0.23c0.25,0.17,0.49,0.34,0.72,0.5c0.09,0.06,0.18,0.12,0.27,0.18
				c0.26,0.18,0.5,0.34,0.68,0.49c0.01,0.01,0.01,0.01,0.02,0.01c0.55,0.44,1.32,1.33,0.53,1.94
				C62.37,107.97,61.13,107.87,60.4,107.59z"/>
		</g>
		<g>
			<path class="st1" d="M60.5,104.1l-1.93,0.57c-0.18,0.05-0.37-0.05-0.43-0.23c-0.01-0.03-0.01-0.06-0.01-0.1
				c0-0.15,0.1-0.29,0.25-0.33l1.48-0.44C60.05,103.76,60.27,103.93,60.5,104.1z"/>
		</g>
		<g>
			<path class="st1" d="M61.54,104.83l-1.87,0.56c-0.18,0.05-0.37-0.05-0.43-0.23c-0.01-0.03-0.01-0.07-0.01-0.1
				c0-0.15,0.1-0.29,0.25-0.33l1.34-0.4C61.06,104.51,61.31,104.67,61.54,104.83z"/>
		</g>
		<g>
			<path class="st1" d="M62.5,105.52l-1.81,0.54c-0.18,0.05-0.37-0.05-0.43-0.23c-0.01-0.03-0.01-0.07-0.01-0.1
				c0-0.15,0.1-0.29,0.25-0.33l1.31-0.39c0.26,0.18,0.5,0.34,0.68,0.49C62.49,105.51,62.5,105.52,62.5,105.52z"/>
		</g>
	</g>
	<path class="st1" d="M58.71,27.16c0.17-0.43-0.27-0.64-0.71-0.9c-0.62-1.48-1.04-2.83-2.38-3.98c-1.24-1.07-3-1.78-4.65-1.15
		c-2.34,0.88-3.2,4.04-1.92,7.06c0.26,0.62,0.61,1.21,1,1.73c1.51,1.99,4.53,2.97,6.28,2.04c0.99-0.52,1.04-0.39,1.52-1.43
		c0.3-0.66,0.7-1.83,0.57-2.95C58.52,27.48,58.63,27.36,58.71,27.16z"/>
	<path class="st1" d="M55.53,21.86c-0.05-0.31-0.05-0.66-0.04-1c0.01-0.27,0.01-0.55-0.01-0.81c-0.08-0.79-0.17-1.55-0.57-2.2
		c-0.41-0.67-1.25-1.11-2.01-1.46c-0.08-0.04-0.17,0-0.21,0.08c-0.03,0.08,0,0.17,0.08,0.21c0.72,0.33,1.51,0.74,1.88,1.34
		c0.37,0.59,0.46,1.32,0.53,2.07c0.02,0.2,0.02,0.41,0.02,0.62c-0.42-1.85-1.54-4.82-5.15-3.58c0,0-1.17,0.29-1.22,2.16
		c0-0.13-2.39-0.21-2.61-0.19c-0.78,0.06-1.6,0.36-2.06,1c-0.46,0.64-0.41,1.66,0.25,2.1c-0.86-0.08-1.72,0.01-2.55,0.23
		c-0.02,0-0.03,0-0.05,0c-2.32,0.18-3.55,1.34-4.17,2.28c-0.05,0.07-0.03,0.17,0.04,0.22c0.03,0.02,0.06,0.03,0.09,0.03
		c0.05,0,0.1-0.03,0.13-0.07c0.43-0.65,1.18-1.41,2.41-1.84c-0.46,0.25-0.9,0.57-1.23,0.98c-0.35,0.44-0.56,1-0.51,1.55
		c-1.19-0.12-2.44-0.08-3.54,0.43c-0.7,0.32-1.25,0.88-1.63,1.55c-0.38,0.68-0.58,1.45-0.7,2.22c-0.14,0.86,0.38,1.42,0.72,1.73
		c0.4,0.35,0.89,0.59,1.39,0.73c1.93,0.54-4.67,2-3.89,4.55c0.78,2.55,3.45,2.45,5.92,1.14c2.47-1.3,4.45-2.84,5.41-2.52
		c0.1,0.03,0.21,0.07,0.32,0.12c-1.73,0.47-4.36,2.26-6.51,3.89c-1.81,1.37-4.26,0.23-4.29,0.22c-0.08-0.04-0.17,0-0.21,0.07
		c-0.04,0.08,0,0.17,0.07,0.21c0.07,0.03,1.06,0.5,2.27,0.5c0.75,0,1.59-0.18,2.34-0.75c3.13-2.36,5.1-3.07,6.38-3.26
		c0.74,0.34,0.82,0.79,1.53,1.2c0.39,0.22,1.25-0.38,1.59-0.09c0.34,0.3,1.31,0.59,1.77,0.52c0.49-0.07,0.93-0.35,1.28-0.69
		c0.39-0.39,0.68-0.85,1.02-1.28c0.34-0.42,0.74-0.79,1.08-1.2c0.32-0.39,0.55-0.84,0.82-1.26c0.23-0.35,0.49-0.66,0.55-1.09
		c0.09-0.59-0.05-1.19-0.26-1.74c-0.15-0.4-0.55-1.33-1.04-1.81c-0.17,0.13-0.39,0.21-0.62,0.21c-0.57,0-1.03-0.46-1.03-1.03
		s0.46-1.03,1.03-1.03c0,0,0,0,0,0c0-0.01-0.01-0.27,0.94-0.83c1.32-0.78,1.95-2.34,1.69-3.07c-0.26-0.73,1.64-0.68,2.13-0.93
		c0.49-0.25,0.35-0.21,0.35-0.21c0-0.01-0.01-0.01-0.01-0.02C55.51,21.99,55.54,21.93,55.53,21.86z"/>
	<g>
		<circle class="st1" cx="56.81" cy="25.79" r="0.35"/>
	</g>
	<g>
		<path class="st1" d="M57.34,24.4c0,0.02-0.66,0.03-0.73,0.03c-0.38,0.03-0.79,0.07-1.12,0.27c-0.14,0.09-0.26,0.22-0.36,0.35
			c-0.1,0.12-0.2,0.3-0.34,0.38c0-0.05,0.02-0.1,0.04-0.15c0.09-0.26,0.19-0.53,0.35-0.76c0.22-0.32,0.67-0.52,1.04-0.61
			C56.59,23.83,57.47,23.81,57.34,24.4z"/>
	</g>
	<g class="st5">
		<path class="st1" d="M57.07,53.83l-0.33,0c-0.72,0.05-3.11,0-5.72-0.08l-0.01,0c0,0,3.01-1.73,2.84-5.85
			C54.66,49.51,55.9,51.93,57.07,53.83z"/>
	</g>
	<g>
		<path class="st6" d="M44.51,46.9c0,0-0.96-0.02-1.47-0.33l0.87-0.6L44.51,46.9z"/>
	</g>
	<g class="st5">
		<path class="st6" d="M41.22,42.88c-0.26,0.21-0.55,0.44-0.83,0.68c-0.16,0.08-1.11-2.01-1.11-2.01
			C39.91,41.79,40.58,42.29,41.22,42.88z"/>
	</g>
	<g>
		<path class="st6" d="M60.23,43.85c0,0-0.46,1.12-1.7,1.96l-0.32-0.68L60.23,43.85z"/>
	</g>
	<g>
		<g>
			<path class="st1" d="M20.16,97.29c-0.02,0.1-0.05,0.2-0.1,0.29c-0.42,0.81-2.15-0.06-2.64-0.44c-0.72-0.57-1.05-1.98-1.27-2.82
				c-0.36-1.37-0.72-2.75-1.08-4.12c-0.25-0.93-0.82-1.69-1.13-2.57c-0.11-0.31,0.21-0.79,0.46-0.97c0.11-0.08,0.39-0.11,0.69-0.13
				c-0.01,0.01-0.02,0.03-0.02,0.04c-0.14,0.26,2.06,2.11,2.46,6.28c0.4,4.17,2.08,4.43,2.11,4.6c0,0.02,0,0.04-0.01,0.06
				c0.04-0.02,0.09-0.03,0.15-0.06C19.97,97.39,20.09,97.33,20.16,97.29z"/>
		</g>
		<g>
			<path class="st1" d="M22.62,90.37c-0.1,0.38-0.71,0.48-0.83,0.9c-0.03,0.08-0.07,0.38-0.13,0.79c-0.03,0.2-0.06,0.42-0.1,0.66
				c-0.02,0.16-0.05,0.33-0.08,0.5c-0.03,0.21-0.07,0.43-0.11,0.66c-0.03,0.14-0.05,0.28-0.08,0.42c-0.04,0.21-0.09,0.43-0.13,0.64
				c-0.22,1.01-0.51,1.9-0.86,2.21c0,0.04-0.07,0.08-0.09,0.1c-0.16,0.11-0.37,0.18-0.56,0.23c0.05-0.01-0.11-0.14-0.12-0.15
				c-0.08-0.05-0.16-0.11-0.24-0.16c-0.16-0.11-0.3-0.24-0.43-0.39c-0.34-0.38-0.58-0.85-0.76-1.32c-0.31-0.82-0.47-1.7-0.55-2.57
				c0-0.02,0-0.03,0-0.05c-0.4-4.17-2.6-6.03-2.46-6.28c0.14-0.26,0.26-0.57,1.46-0.8c1.2-0.23,3.83-0.2,3.83-0.2
				c-0.27,0.54-0.86,1.73-0.46,2.31c0.1,0.15,0.26,0.24,0.41,0.32c0.82,0.45,2.04,0.87,2.29,1.9C22.64,90.2,22.64,90.29,22.62,90.37
				z"/>
		</g>
		<g>
			<path class="st1" d="M21.66,92.06L21.66,92.06c-0.03,0.2-0.06,0.42-0.1,0.67l-1.48-1.24c-0.12-0.1-0.14-0.28-0.04-0.4
				c0.06-0.07,0.14-0.1,0.22-0.1c0.07,0,0.13,0.02,0.18,0.07L21.66,92.06z"/>
		</g>
		<g>
			<path class="st1" d="M21.49,93.23c-0.03,0.21-0.07,0.43-0.11,0.66l-1.58-1.32c-0.12-0.1-0.14-0.28-0.04-0.4
				c0.06-0.07,0.14-0.1,0.22-0.1c0.07,0,0.13,0.02,0.18,0.07L21.49,93.23z"/>
		</g>
		<g>
			<path class="st1" d="M21.3,94.31c-0.04,0.21-0.09,0.43-0.13,0.64l-1.49-1.25c-0.12-0.1-0.14-0.28-0.04-0.4
				c0.06-0.07,0.14-0.1,0.22-0.1c0.07,0,0.13,0.02,0.19,0.07L21.3,94.31z"/>
		</g>
	</g>
	<path class="st1" d="M46.46,40.92l-1.2,5.59l-0.75,0.39c0,0-1.01-1.59-2.34-3.06L46.46,40.92z"/>
</g>
</svg>
